# xmcd CD database file
#
# Track frame offsets:
#	150
#	10305
#	23537
#	32860
#	42562
#	53120
#	62545
#	76105
#	89437
#	104330
#	115080
#	127677
#	137865
#	148170
#	160847
#	169945
#	188222
#	197875
#	210180
#	224052
#	236525
#	249875
#	261507
#	272410
#	284705
#	296000
#	306810
#	317922
#
# Disc length: 4358 seconds
#
# Revision: 0
# Processed by: cddbd v1.5.2PL0 Copyright (c) Steve Scherf et al.
# Submitted via: CDex 1.70beta2
#
DISCID=9e11041c
DTITLE=Jones Classic Country - Jones Classic Country CCC-600
DYEAR=0000
DGENRE=Country
TTITLE0=Merle Haggard/Mama Tried
TTITLE1=Statler Brothers/Do You Remember These
TTITLE2=Buck Owens/Love's Gonna Live Here
TTITLE3=Burl Ives/Little Bitty Bear
TTITLE4=Jimmie Rodgers/Honeycomb
TTITLE5=Marty Robbins/Ruby Ann
TTITLE6=Hank Williams Sr/Mind Your Own Business
TTITLE7=Cal Smith/Lord Knows I'm Drinking
TTITLE8=Vern Gosdin/Yesterday's Gone
TTITLE9=Ferlon Husky/Wings Of A Dove
TTITLE10=Hank Thompson/Wild Side Of Life
TTITLE11=Tom T Hall/Country Is
TTITLE12=George Hamilton IV/Abilene
TTITLE13=Bobby Bare/Four Strong Winds
TTITLE14=Faron Young/Alone With You
TTITLE15=Bobby Goldsboro/Honey
TTITLE16=Webb Pierce/In The Jailhouse Now
TTITLE17=Kitty Wells/Left To Right
TTITLE18=Brenda Lee/Nobody Wins
TTITLE19=Dolly Parton/Bargain Store
TTITLE20=Jack Greene/Statue Of A Fool
TTITLE21=Hank Thompson/Squaws Along The Yukon
TTITLE22=Jim Ed Brown/Pop A Top
TTITLE23=Loretta Lynn/Success
TTITLE24=Waylon Jennings/This Time
TTITLE25=Cowboy Copas/Alabam
TTITLE26=Hank Williams/Moanin' THe Blues
TTITLE27=Elvis Presley/All Shook Up
EXTD=YEAR: 0000
EXTT0=
EXTT1=
EXTT2=
EXTT3=
EXTT4=
EXTT5=
EXTT6=
EXTT7=
EXTT8=
EXTT9=
EXTT10=
EXTT11=
EXTT12=
EXTT13=
EXTT14=
EXTT15=
EXTT16=
EXTT17=
EXTT18=
EXTT19=
EXTT20=
EXTT21=
EXTT22=
EXTT23=
EXTT24=
EXTT25=
EXTT26=
EXTT27=
PLAYORDER=
